<?xml version="1.0" encoding="UTF-8"?>
<svg version="1.1" xmlns="http://www.w3.org/2000/svg" width="900" height="600">
<path d="M0 0 C2.22265625 0.02734375 2.22265625 0.02734375 5 1 C6.72316623 3.51847372 8.07583112 5.85584513 9.4375 8.5625 C10.31608428 10.22420667 11.19775752 11.88428272 12.08203125 13.54296875 C12.78706787 14.87593994 12.78706787 14.87593994 13.50634766 16.23583984 C16.09123128 21.01943781 18.86498556 25.69099852 21.625 30.375 C26.76137469 39.13672006 31.84214647 47.92842069 36.875 56.75 C37.20733643 57.33235413 37.53967285 57.91470825 37.88208008 58.51470947 C40.59690444 63.2725392 43.30889984 68.03197968 46.02075195 72.79150391 C48.38751434 76.94508977 50.75545323 81.09800191 53.125 85.25 C53.45704437 85.83192108 53.78908875 86.41384216 54.13119507 87.01339722 C59.33776536 96.13412897 64.61448027 105.21232052 69.92236328 114.27441406 C74.39712856 121.92905385 78.76647574 129.63957372 83.11279297 137.36767578 C87.51017852 145.17094463 92.01257485 152.90943564 96.54101562 160.63720703 C101.92992313 169.84649708 107.2232419 179.1090181 112.49536133 188.38549805 C115.88782066 194.3447319 119.32913842 200.25544289 122.95117188 206.07861328 C124 208 124 208 124 210 C127.87788579 206.34941479 130.89583557 202.57243325 133.8125 198.125 C134.45989136 197.13935059 134.45989136 197.13935059 135.12036133 196.13378906 C159.40707186 158.59612038 167.10654247 113.2696621 158.3125 69.5625 C154.90708676 53.87044628 149.27673315 39.64370218 141.46850586 25.62548828 C140.77253296 24.36841064 140.77253296 24.36841064 140.0625 23.0859375 C139.64097656 22.3439209 139.21945312 21.6019043 138.78515625 20.83740234 C138.52605469 20.23105957 138.26695312 19.6247168 138 19 C138.33 18.34 138.66 17.68 139 17 C162.73651376 45.55727574 179.96829135 81.44126654 180.203125 119.20703125 C180.21018463 119.96578552 180.21724426 120.72453979 180.22451782 121.50628662 C180.4546514 153.49853263 180.4546514 153.49853263 177 167 C176.69400879 168.20100342 176.69400879 168.20100342 176.38183594 169.42626953 C168.61445552 198.90726581 155.02717443 224.83826579 134 247 C132.94918468 248.24231905 131.9062691 249.49140814 130.875 250.75 C125.72920487 256.77956049 119.39413559 261.55673746 113.1875 266.4375 C112.62409912 266.88714111 112.06069824 267.33678223 111.48022461 267.80004883 C107.34915282 271 107.34915282 271 104 271 C103.59910156 270.29319092 103.19820312 269.58638184 102.78515625 268.8581543 C94.63178696 254.49847174 86.38669468 240.20555234 77.93798828 226.01708984 C72.71861309 217.24154461 67.5961868 208.41339324 62.50585938 199.5625 C56.62557134 189.33860615 50.68481862 179.15066565 44.73388672 168.96777344 C41.81989157 163.98009038 38.91022471 158.98988361 36 154 C35.42314453 153.01128906 34.84628906 152.02257812 34.25195312 151.00390625 C31.32096941 145.98029841 28.39150179 140.95581677 25.46484375 135.9296875 C24.28907923 133.91144859 23.11329808 131.89321936 21.9375 129.875 C21.36757324 128.8957959 20.79764648 127.9165918 20.21044922 126.90771484 C17.24157114 121.81424128 14.25213352 116.73423569 11.23046875 111.671875 C10.62533447 110.65625488 10.0202002 109.64063477 9.39672852 108.59423828 C8.23829258 106.65281649 7.07616907 104.71358908 5.90991211 102.77685547 C5.39565674 101.91463379 4.88140137 101.05241211 4.3515625 100.1640625 C3.89604004 99.40561035 3.44051758 98.6471582 2.97119141 97.86572266 C2 96 2 96 2 94 C1.34 94 0.68 94 0 94 C-0.27295898 94.71953857 -0.54591797 95.43907715 -0.82714844 96.18041992 C-1.98060771 98.9533802 -3.29738687 101.4947937 -4.765625 104.11328125 C-5.31847168 105.10110596 -5.87131836 106.08893066 -6.44091797 107.10668945 C-7.03791504 108.16460693 -7.63491211 109.22252441 -8.25 110.3125 C-8.87406738 111.42262451 -9.49813477 112.53274902 -10.14111328 113.67651367 C-14.8853086 122.08873547 -19.72679176 130.44194898 -24.61083984 138.77368164 C-29.08118519 146.40469601 -33.49245581 154.06833114 -37.875 161.75 C-38.20769897 162.33298859 -38.54039795 162.91597717 -38.88317871 163.51663208 C-41.25701335 167.67686548 -43.62876394 171.83828506 -46 176 C-48.70689382 180.75082201 -51.41486373 185.50102681 -54.125 190.25 C-54.45737671 190.83258575 -54.78975342 191.41517151 -55.13220215 192.01541138 C-60.30943587 201.08627626 -65.56117112 210.11174576 -70.84545898 219.12060547 C-75.05475279 226.32025551 -79.13768301 233.58466515 -83.1875 240.875 C-88.86156254 251.08672319 -94.80317228 261.09772224 -101 271 C-105.50821676 269.54170438 -108.6799964 267.01456108 -112.1875 263.9375 C-112.75484863 263.44725342 -113.32219727 262.95700684 -113.90673828 262.4519043 C-115.61057401 260.97475196 -117.30554223 259.48789049 -119 258 C-120.39798828 256.78957031 -120.39798828 256.78957031 -121.82421875 255.5546875 C-126.9882998 251.01535745 -131.67404318 246.34274154 -136 241 C-136.74765625 240.08992187 -137.4953125 239.17984375 -138.265625 238.2421875 C-160.29412584 210.60265343 -175.98053078 175.59039804 -176.203125 139.79296875 C-176.21018463 139.03421448 -176.21724426 138.27546021 -176.22451782 137.49371338 C-176.4546514 105.50146737 -176.4546514 105.50146737 -173 92 C-172.79600586 91.19933105 -172.59201172 90.39866211 -172.38183594 89.57373047 C-166.77922759 68.30909981 -158.28987871 47.65062017 -145 30 C-144.67 30.66 -144.34 31.32 -144 32 C-144.95669375 34.34130163 -145.97630234 36.59442422 -147.0625 38.875 C-155.69200791 57.85904836 -160.12616869 78.19189184 -161 99 C-161.04125 99.89976562 -161.0825 100.79953125 -161.125 101.7265625 C-162.02642936 141.72749049 -147.78627742 181.50614605 -122 212 C-116.14111088 202.84776016 -110.83801286 193.41505995 -105.55810547 183.92016602 C-101.45742738 176.56160054 -97.26710008 169.26318735 -93 162 C-88.23548104 153.88594837 -83.57571638 145.72199037 -79 137.5 C-73.86656151 128.27585271 -68.60422565 119.13759401 -63.25878906 110.03491211 C-58.99823967 102.76035222 -54.85181081 95.42759604 -50.75 88.0625 C-46.57091528 80.55968876 -42.33914116 73.10071979 -37.95458984 65.71630859 C-34.02403734 59.08045385 -30.19692345 52.3863508 -26.375 45.6875 C-26.03919922 45.09908325 -25.70339844 44.5106665 -25.35742188 43.90441895 C-22.90344556 39.603802 -20.45159277 35.301976 -18 31 C-15.39776544 26.434029 -12.79464225 21.86856776 -10.1897583 17.30410767 C-9.14303246 15.46911237 -8.09761087 13.63337833 -7.05224609 11.79760742 C-6.41883301 10.68748291 -5.78541992 9.5773584 -5.1328125 8.43359375 C-4.57480957 7.45447021 -4.01680664 6.47534668 -3.44189453 5.46655273 C-2.35518814 3.60759664 -1.19442919 1.79164378 0 0 Z " fill="#FFFFFF" transform="translate(448,168)"/>
<path d="M0 0 C1.26457031 0.350625 2.52914062 0.70125 3.83203125 1.0625 C30.53393204 9.25222037 54.73036606 23.90181601 75 43 C75.60199219 43.54914063 76.20398438 44.09828125 76.82421875 44.6640625 C101.57348525 68.08644524 112.91261584 102.60501705 114.21875 135.91796875 C114.64742596 153.07321919 112.59768224 170.23775649 109 187 C108.67 187 108.34 187 108 187 C108.0611499 186.09012329 108.0611499 186.09012329 108.12353516 185.16186523 C110.72722399 144.21328991 103.36083155 103.28204102 75.65087891 71.45019531 C72.50841494 67.89387764 69.27177207 64.4373679 66 61 C65.40703125 60.35417969 64.8140625 59.70835937 64.203125 59.04296875 C40.78711237 34.29386629 4.08896691 20.6842629 -29.41455078 19.02392578 C-69.16569609 17.97613492 -106.50750538 32.21959033 -135.32421875 59.453125 C-136.20722656 60.29359375 -137.09023438 61.1340625 -138 62 C-138.96873047 62.88945312 -138.96873047 62.88945312 -139.95703125 63.796875 C-165.11854547 87.60308518 -179.02577332 125.33041287 -180.046875 159.4609375 C-180.10205681 171.66163551 -178.36436489 183.89436247 -177 196 C-182.95776074 190.04223926 -182.65067546 177.55611425 -183.1875 169.5625 C-183.26645508 168.45994873 -183.34541016 167.35739746 -183.42675781 166.22143555 C-186.48633261 121.47018725 -176.02416355 79.40307895 -146.46875 45.05859375 C-111.04607286 4.81435323 -52.13005009 -15.0906064 0 0 Z " fill="#FFFFFF" transform="translate(484,132)"/>
<path d="M0 0 C4.05954487 1.23168854 7.76654272 2.81216346 11.55493164 4.71606445 C46.21096688 22.02568932 85.86722112 24.24164947 122.53369141 12.16552734 C131.13616534 9.22001653 139.57862378 6.0099967 147.67578125 1.84765625 C150.68485092 0.75023084 152.81257377 0.64349985 156 1 C157.84277344 2.94018555 157.84277344 2.94018555 159.359375 5.63671875 C160.19662109 7.09174805 160.19662109 7.09174805 161.05078125 8.57617188 C161.61152344 9.60291016 162.17226563 10.62964844 162.75 11.6875 C163.32621094 12.69490234 163.90242187 13.70230469 164.49609375 14.74023438 C166.95588396 19.08357024 169.22621863 23.32725388 171 28 C149.9744792 39.3272174 128.64329182 47.2822431 105 51 C103.40393921 51.26151855 103.40393921 51.26151855 101.77563477 51.52832031 C97.61664283 52.04789176 93.56099774 52.19685944 89.375 52.23828125 C88.55904358 52.2480751 87.74308716 52.25786896 86.90240479 52.26795959 C69.27721994 52.43590907 52.1784466 52.4571651 35 48 C34.13584473 47.78037598 33.27168945 47.56075195 32.38134766 47.33447266 C15.1095456 42.82587182 -0.43340524 35.61083187 -16 27 C-14.56378083 21.77151674 -12.17093403 17.89573571 -9.125 13.5 C-8.69058594 12.86191406 -8.25617188 12.22382813 -7.80859375 11.56640625 C-6.95348177 10.31070127 -6.09580592 9.05673773 -5.23535156 7.8046875 C-3.46559109 5.21929829 -1.73233123 2.61058288 0 0 Z " fill="#FFFFFF" transform="translate(372,419)"/>
<path d="" fill="#FFFFFF" transform="translate(0,0)"/>
<path d="" fill="#FFFFFF" transform="translate(0,0)"/>
<path d="" fill="#FFFFFF" transform="translate(0,0)"/>
<path d="" fill="#FFFFFF" transform="translate(0,0)"/>
<path d="" fill="#FFFFFF" transform="translate(0,0)"/>
<path d="" fill="#FFFFFF" transform="translate(0,0)"/>
</svg>
